<svg viewBox="0 0 214.88 36.146" xmlns="http://www.w3.org/2000/svg"><path d="M24.579 0C12.871 0 4.207 6.601.962 18.047c-3.244 11.445 1.848 18.1 13.369 18.1 11.52 0 20.336-6.654 23.584-18.1.599-2.12 1.161-5.18 1.219-6.951h-13.65c.057 1.51-.147 4.566-.822 6.951-1.82 6.412-4.527 9.688-7.946 9.688-3.42 0-4.317-3.276-2.498-9.688 1.818-6.412 4.572-9.69 7.992-9.69 5.375 0 11.354.042 16.875.042C37.981 2.614 32.713 0 24.58 0zm23.885.877-2.127 7.51 14.766-.022c4.262 0 6.172 1.157 5.174 4.678-1.028 3.625-3.432 4.336-7.692 4.336h-2.062l1.719-6.283H45.554L38.71 35.285h12.736l2.828-9.975h7.633c9.039 0 14.9-4.32 17.195-12.408 1.402-4.95.438-8.653-2.422-10.457C74.428.973 71.224.877 67.106.877zm34.715 0-2.123 7.51h35.439l2.125-7.51zm73.713 7.766c-3.799 0-7.284.58-10.584 1.83l-1.512 5.828c3.388-1.396 6.156-2.117 8.15-2.117 4.04 0 5.788 1.539 4.981 4.38l-.093.338h-3.422c-9.167 0-14.333 2.65-15.971 8.428-1.394 4.914.902 8.195 6.128 8.195 3.99 0 7.243-1.261 10.24-4.295l-.945 4.004h7.553l3.84-13.537c2.51-8.863.041-13.055-8.366-13.055zm-29.029.048c-8.17 0-14.809 5.153-17.09 13.195-2.472 8.718 1.425 14.072 10.781 14.072 3.322 0 6.562-.53 9.713-1.597l1.79-6.307c-3.34 1.397-6.457 2.164-9.02 2.164-4.325 0-6.327-1.972-5.717-5.295h17.857l.615-2.17c2.539-8.958-.667-14.062-8.93-14.062zm62.914.047c-3.704 0-7.434 1.93-10.287 5.301l1.309-4.627h-7.836l-7.319 25.816h8.596l3.523-12.426c1.2-4.24 3.895-6.693 6.553-6.693 2.803 0 3.519 1.83 2.37 5.875l-3.757 13.244h8.647l3.521-12.426c1.203-4.24 3.845-6.694 6.504-6.694 2.804 0 3.52 1.831 2.373 5.875l-3.756 13.244h8.598l4.285-15.123c2.104-7.417-.1-11.367-6.037-11.367-3.752 0-7.494 1.977-10.473 5.446-.486-3.469-2.872-5.446-6.814-5.446zm-100.06 2.358-6.848 24.189h12.738l6.846-24.19zm35.646 3.039c2.801 0 4.225 2.023 3.594 5.586h-10.258c1.39-3.563 3.957-5.586 6.664-5.586zm28.697 9.34h1.473l-.217.771c-1.013 3.566-3.983 5.828-7.022 5.828-2.04 0-2.967-1.25-2.463-3.033.738-2.602 3.335-3.566 8.229-3.566z" fill="#004e9f"/></svg>