<svg fill="#000008" viewBox="0 0 742.03 68.001" xmlns="http://www.w3.org/2000/svg"><path d="M0 30.691h5.35l2.36 13.96 3.08-9.4h3.14l3.16 9.4 2.17-13.96h4.64l-3.88 20.21h-5.36l-2.47-8.67-2.84 8.67H4.3zM25.81 30.691h5.35l2.36 13.96 3.08-9.4h3.14l3.16 9.4 2.17-13.96h4.64l-3.88 20.21h-5.36L38 42.231l-2.84 8.67h-5.05zM51.41 30.691h5.35l2.36 13.96 3.08-9.4h3.14l3.16 9.4 2.17-13.96h4.64l-3.88 20.21h-5.36l-2.47-8.67-2.84 8.67h-5.05zM86.342 48.091a3.326 3.326 0 0 1-3.326 3.326 3.326 3.326 0 0 1-3.326-3.326 3.326 3.326 0 0 1 3.326-3.326 3.326 3.326 0 0 1 3.326 3.326zM96.46 18.871c1.9-4.39 6.74-6.91 11.4-6.99 4.52-.04 9.36.08 13.39 2.37-.06 3.67-.03 7.35-.03 11.03l-6.26.03c-.02-2-.03-4-.06-6-4.14-.71-12.08-1.98-11.67 4.47 4.46 5.27 12.63 4.91 17.05 10.28 2.41 2.49 2.4 6.27 1.78 9.46-1 4.17-4.85 7.14-8.89 8.1-5.92 1.31-12.36.57-17.61-2.56.06-3.39.04-6.79.04-10.18 2.01 0 4.03 0 6.04-.01-.01 1.71-.03 3.41-.07 5.12 3.32 1.32 7.11 1.84 10.57.74 2.82-.84 3.58-4.94 1.33-6.78-4.69-3.29-11-3.7-15.11-7.88-3.06-2.8-3.23-7.53-1.9-11.2zM124.72 12.531c3.96 0 7.93 0 11.89.01.01 7.48-.04 14.96.03 22.44 1.63.07 2.47-1.35 3.44-2.35 2.53-2.81 4.69-5.93 7.31-8.65 2.83-.43 5.71-.15 8.56-.14-3.46 4.37-7.87 8.06-10.84 12.74 2.08 3.07 4.66 5.76 6.98 8.65 1.74 0 3.49-.01 5.24-.01v6.32c-3.06 0-6.11.01-9.17-.03-3.13-3.81-6.18-7.71-9.57-11.3-.49-.1-1.49-.29-1.98-.38-.02 3.9 0 7.8-.01 11.71-2.42 0-4.84 0-7.26-.01 0-10.89-.01-21.78 0-32.67-1.54-.01-3.08-.01-4.61-.02-.01-2.1-.01-4.2-.01-6.31zM159.19 12.541c3.98-.01 7.95-.01 11.92-.01.04 8.99-.06 17.99.04 26.98.19 2 .1 4.73 2.23 5.76 2.29 1.59 5.03 0 7.36-.69.86 1.66 1.77 3.29 2.68 4.92-3.91 2.87-9.12 3.36-13.7 2.11-3.9-1.09-6-5.25-5.92-9.09-.07-7.89-.01-15.78-.02-23.66-1.52-.01-3.05-.01-4.57-.01-.01-2.1-.01-4.21-.02-6.31zM187.49 31.951c3.29-10.11 18.83-12.33 25.23-4.09 2.41 3.55 1.82 8.1 1.39 12.11-6.79.03-13.58-.03-20.36.04.51 2.41 1.57 4.89 4.1 5.74 4.44 1.5 9.51.77 13.4-1.84.85 1.59 1.71 3.17 2.57 4.75-5.58 3.82-13.03 4.63-19.34 2.3-7.11-2.98-9.72-12.18-6.99-19.01m6.49 2.74c4.63.05 9.26.04 13.89.01-.36-1.59-.89-3.12-1.5-4.61-4.4-2.6-11.66-1.22-12.39 4.6zM227.7 27.031c4.09-5 12.26-5.6 17.19-1.55 3.24 2.99 4.13 7.73 3.95 11.96 0 4.86-1.81 10.26-6.19 12.86-4.16 2.66-9.4 2.02-14.02 1.23.05 3.68.04 7.37.03 11.06h-7.27v-32.74c-1.41 0-2.81 0-4.21.01-.01-2.03-.01-4.05-.01-6.07 3.17.03 6.35-.16 9.51.13.47.99.81 2.02 1.02 3.11m3.24 3.14c-.72.83-1.45 1.66-2.18 2.48-.16 4.05-.07 8.11-.1 12.17 3.44 1.88 7.71 1.81 10.75-.81 2.22-3.85 3.27-9.29.09-12.93-2.11-2.58-5.83-2.12-8.56-.91zM256.57 32.321c5.41-.01 10.83 0 16.24-.01 0 2.19-.01 4.38-.01 6.58-5.41-.02-10.82 0-16.23-.01v-6.56zM333.78 11.691c4.02-.1 8.03-.06 12.05-.06.01 8.62-.02 17.24.01 25.87.09 2.16.02 4.58 1.46 6.37 2.47 1.8 5.61.59 8.25-.13.85 1.64 1.73 3.26 2.6 4.88-4.18 2.58-9.48 3.7-14.16 1.86-3.2-1.28-5.39-4.51-5.35-7.96-.18-8.27-.02-16.54-.07-24.81-1.59-.01-3.19-.02-4.77-.04-.01-1.99-.01-3.98-.02-5.98zM362.35 30.561c3.64-10.05 19.67-11.86 25.55-3.03 1.84 3.57 1.35 7.74.88 11.58-6.8 0-13.6-.05-20.39.03.61 2.08 1.38 4.53 3.67 5.32 4.56 1.65 9.73.86 14.03-1.23.91 1.44 1.72 2.93 2.5 4.44-6.35 4.17-15.22 5.25-21.76.94-5.61-3.94-6.65-11.93-4.48-18.05m6.22 3.21c4.73.07 9.47.07 14.21-.01-.67-1.87-.93-4.22-2.9-5.24-4.3-2.31-10.52.22-11.31 5.25zM390.63 11.631c3.96-.01 7.92-.01 11.88 0 .01 7.49-.05 14.98.04 22.47 1.8-.2 2.81-1.81 3.93-3.02 2.21-2.81 4.59-5.49 6.71-8.38 2.9-.06 5.8-.07 8.7.03-3.72 4.34-7.59 8.54-11.44 12.75 2.71 2.7 4.84 5.9 7.43 8.71 1.76.17 3.54.11 5.32.14.03 1.93.06 3.86.14 5.79-3.17.58-6.97 1.36-9.87-.35-3.07-3.3-5.65-7.05-8.74-10.33-.54-.15-1.63-.46-2.17-.61-.09 3.8-.08 7.6.01 11.4-2.38.35-4.79.5-7.19.5-.3-11.01-.05-22.02-.13-33.03-1.54 0-3.08-.01-4.62-.01 0-2.02-.01-4.04 0-6.06zM430.71 16.291c2.41-.78 4.86-1.43 7.39-1.75-.01 2.71-.01 5.41-.01 8.11 4.85.01 9.69 0 14.54.01-.01 2.11-.01 4.21-.01 6.32-4.84-.01-9.68-.01-14.52 0 .04 4.19-.27 8.41.45 12.57.68.81 1.35 1.62 2.01 2.46 4.27 2.06 8.62-.19 12.1-2.68.89 1.69 2.59 3.19 2.72 5.16-3.46 3.48-8.7 5.07-13.55 4.79-4.43-.11-8.84-2.89-10.18-7.24-1.42-4.89-.81-10.05-.94-15.07-1.81 0-3.63.01-5.43.01-.01-2.11-.01-4.21-.01-6.32 1.81 0 3.62 0 5.44-.01v-6.36zM459.35 22.671c4.28-.01 8.57-.07 12.85.08.17.95.5 2.84.66 3.79 2.74-3.52 7.58-5.79 11.9-3.73 3.42 2.01 3.55 6.34 3.78 9.85-2.09 0-4.17 0-6.25.01-.37-1.22-.75-2.43-1.14-3.64-3.08-.57-5.75.91-7.55 3.32.02 3.97.01 7.94-.02 11.9 4.01.07 8.02.06 12.04.02.05 2 .08 4 .12 6-1.89.31-3.81.45-5.7.15-6.9-.35-13.8.25-20.69-.13 0-2 .01-4 .03-6 2.3.01 4.62.01 6.93.01.01-5.11.01-10.22.01-15.32-2.33-.01-4.65-.01-6.96-.01-.01-2.1-.01-4.2-.01-6.3zM501.17 22.751c6.63-1.97 15.2-.63 18.81 5.9 2.8 6.09 2.52 14.42-2.62 19.23-6.16 4.91-16.3 4.78-21.79-1.08-6.25-7.26-4.09-20.92 5.6-24.05m.53 7.48c-3.35 3.92-2.59 10.09.86 13.71 2.76 1.13 6.1 1.68 8.76-.06 3.46-2.52 3.43-7.6 2.28-11.31-1.62-4.84-8.56-6.04-11.9-2.34zM523.9 22.841c3.36-.25 6.73-.2 10.1-.18.22 1.27.44 2.55.67 3.82 2.81-3.17 6.88-5.13 11.18-4.46 4.09-.09 7.44 3.39 7.97 7.28.63 4.7.19 9.46.33 14.19-.09 2.46.38 5.06-.7 7.37-1.99-.63-4.07-.54-6.07-.05-1.39-6.16 0-12.55-.81-18.77-.44-2.45-3.07-3.62-5.3-3.78-2.51.21-4.38 1.99-5.92 3.8-.05 6.07-.02 12.14-.02 18.2-2.36.07-4.7.27-7.04.5-.35-7.23-.08-14.48-.16-21.71-1.38-.06-2.74-.11-4.1-.17.2-2.02.24-4.05-.13-6.04zM558.88 22.661c5.78.03 11.57-.08 17.35.08-.04 7.19-.01 14.37-.02 21.55 3.41.01 6.82.01 10.23 0 .01 2 .01 3.99.03 5.98-9.09.59-18.25-.45-27.35.47-.18-2.14-.26-4.29-.29-6.44 3.28 0 6.56 0 9.85-.01-.01-5.1 0-10.21-.01-15.32h-9.79c-.01-2.1-.01-4.21 0-6.31zM577.47 15.08a5 4.25 0 0 1-5 4.25 5 4.25 0 0 1-5-4.25 5 4.25 0 0 1 5-4.25 5 4.25 0 0 1 5 4.25zM586.85 17.691c-.01-2.02-.01-4.04 0-6.06 3.95 0 7.9-.01 11.86 0-.01 7.45-.01 14.91 0 22.36 1.91.15 2.83-1.7 3.96-2.86 2.46-2.74 4.41-5.98 7.19-8.4 2.74-.21 5.49-.07 8.24.06-3.62 4.32-7.61 8.31-11.17 12.68 2.42 2.9 4.79 5.84 7.17 8.77 1.76.04 3.53.06 5.31.07.03 1.98.05 3.97.12 5.95-3.08.66-6.2-.03-9.3.03-3.34-3.44-5.93-7.53-9.38-10.86-.53-.12-1.6-.37-2.14-.49-.02 3.79-.01 7.59 0 11.39h-7.28c.01-10.88.01-21.76 0-32.64h-4.58zM625.07 24.481c4.93-2.17 10.45-2.92 15.78-2.09 3.82.53 6.96 4.14 6.92 8.01.24 4.63-.56 9.25-.12 13.89 1.19 0 2.39.01 3.59.01 0 2.01.01 4.02.02 6.03-3.14-.05-6.29.18-9.4-.17-.14-.72-.43-2.15-.57-2.86-3.49 3.15-8.57 5.07-13.1 3.04-6.27-1.88-6.73-11.9-1.05-14.75 4.11-2.26 9.04-1.65 13.55-1.41-.07-1.43-.14-2.85-.22-4.28-4.09-3.37-9.33-.94-13.77.21-.53-1.89-1.09-3.76-1.63-5.63m6.42 15.13c-1.34 1.32-.58 3.03-.19 4.56 3.31 1.24 7.11.73 9.37-2.16-.08-1.26-.17-2.51-.25-3.77-3.02-.14-6.36-.64-8.93 1.37zM666.41 47.771a3.326 3.326 0 0 1-3.326 3.326 3.326 3.326 0 0 1-3.326-3.326 3.326 3.326 0 0 1 3.326-3.326 3.326 3.326 0 0 1 3.326 3.326zM675.7 32.311c4.29-3.52 10.73-3.47 15.53-1.08-.04 2.28-.05 4.56-.04 6.84-1.53-.01-3.05-.02-4.56-.04-.06-1.27-.11-2.55-.16-3.83-2.05.14-4.33-.27-6.09 1.05-3.27 2.16-3.18 7.82.15 9.87 2.91 2.26 6.92.92 9.89-.57.63 1.34 1.27 2.68 1.93 4.02-4.08 1.93-8.93 3.51-13.32 1.6-7.38-2.16-8.92-13.05-3.33-17.86zM700.75 30.331c4.31-1.34 9.66-1.1 13 2.32 3.75 4.47 3.49 11.84-.77 15.89-3.57 2.63-8.56 3.31-12.59 1.34-7.9-3.14-7.62-16.6.36-19.55m-.63 10.28c-.16 2.18 1.49 3.74 2.64 5.38 2.14.37 4.95.99 6.5-1.02 3.07-3.25 1.86-10.75-3.29-10.89-3.66-.66-6.43 3.16-5.85 6.53zM723.55 32.171c1.94-2.96 7.12-3.73 8.79-.12 1.82-2.16 4.47-2.72 7.17-2.24 1.1 1.37 2.57 2.7 2.39 4.64.26 5.26.03 10.54.11 15.8h-4.87c-.19-4.89.38-9.84-.3-14.7-.24-1.89-3.75-2.06-3.72.04-.26 4.88-.01 9.78-.09 14.66h-4.89c-.19-4.87.36-9.79-.27-14.63-.05-2.21-3.45-1.89-3.79-.03-.33 4.88-.02 9.78-.13 14.66-1.63 0-3.26 0-4.87.01-.01-6.76-.01-13.52 0-20.27 1.89.11 4.61-.66 4.47 2.18z"/><path d="M285.42 1.171c2.665-1.042 5.473-1.187 8.311-1.17h17.13c3.353 0 6.65.277 9.65 1.97 5.3 2.72 8.52 8.61 8.58 14.5.01 11.68.02 23.37 0 35.06-.07 6.12-3.63 12.21-9.25 14.81-3.155 1.363-6.507 1.668-9.89 1.66h-16.032c-3.594-.007-7.145-.389-10.389-2.1-5.02-2.84-8.42-8.53-8.22-14.34 0-11.71-.01-23.42 0-35.13-.26-6.52 4-12.95 10.11-15.26" fill="#e13322"/><path d="M289.9 14.451v-4.95h24.75v4.95h4.95v9.9h-4.95v4.95h4.95v9.9h-4.95v4.95h4.95v14.85h-29.7v-4.95h-4.95v-39.6z" fill="#000008"/><path d="M289.9 14.451h19.8v4.95h-14.85v9.9h14.85v4.95h-14.85v9.9h14.85v4.95h-19.8z" fill="#fff"/></svg>