<?xml version="1.0" standalone="no"?>
<!DOCTYPE svg PUBLIC "-//W3C//DTD SVG 20010904//EN"
 "http://www.w3.org/TR/2001/REC-SVG-20010904/DTD/svg10.dtd">
<svg version="1.0" xmlns="http://www.w3.org/2000/svg"
 width="457.000000pt" height="457.000000pt" viewBox="0 0 457.000000 457.000000"
 preserveAspectRatio="xMidYMid meet">
<metadata>
Created by potrace 1.14, written by Peter Selinger 2001-2017
</metadata>
<g transform="translate(0.000000,457.000000) scale(0.100000,-0.100000)"
fill="#000000" stroke="none">
<path d="M826 4353 c-2 -2 -23 -5 -47 -7 -316 -30 -539 -296 -541 -646 -1 -77
9 -217 16 -228 2 -4 7 -26 9 -47 3 -22 8 -51 11 -65 3 -14 8 -36 10 -50 2 -14
14 -72 26 -130 12 -58 24 -115 26 -128 2 -12 9 -50 15 -85 19 -108 20 -116 23
-215 5 -165 -39 -264 -149 -339 -37 -25 -115 -51 -170 -56 l-40 -4 0 -69 c0
-67 1 -69 25 -70 165 -10 300 -123 328 -275 9 -47 7 -192 -2 -256 -7 -43 -23
-135 -31 -173 -3 -14 -7 -37 -10 -52 -3 -15 -12 -58 -20 -95 -9 -37 -18 -83
-20 -101 -2 -18 -6 -41 -9 -50 -3 -9 -8 -30 -10 -47 -3 -16 -9 -50 -14 -75 -4
-25 -8 -62 -8 -83 1 -20 -1 -37 -4 -37 -7 0 -4 -122 4 -195 26 -222 154 -415
330 -494 67 -31 116 -50 116 -47 0 2 17 0 38 -6 20 -5 94 -11 163 -14 l126 -6
2 55 c2 85 -13 96 -129 102 -100 5 -110 6 -150 19 -139 45 -242 157 -283 307
-18 65 -19 67 -19 199 -1 113 5 182 28 300 9 41 17 91 20 110 3 19 9 51 14 70
5 19 12 51 15 70 3 19 12 69 20 110 31 156 39 336 20 410 -38 144 -144 260
-280 307 l-48 16 44 15 c102 34 199 118 247 214 38 74 45 113 45 233 0 106 -8
169 -39 332 -3 16 -7 37 -9 48 -1 11 -7 40 -13 65 -12 51 -23 105 -27 137 -2
12 -6 34 -9 50 -22 102 -29 181 -29 323 0 108 3 134 25 196 47 131 116 213
222 263 66 31 116 42 223 46 106 4 118 15 111 106 l-3 44 -93 0 c-51 1 -94 -1
-96 -2z"/>
<path d="M3559 4356 c0 -1 -2 -25 -3 -55 -3 -83 12 -95 121 -97 224 -4 358
-100 439 -316 11 -30 17 -84 19 -183 3 -147 -1 -194 -35 -370 -5 -27 -12 -61
-14 -75 -3 -14 -19 -95 -36 -180 -33 -171 -45 -269 -42 -375 2 -71 3 -77 17
-130 14 -52 76 -150 115 -183 37 -32 118 -80 153 -91 41 -14 49 -31 14 -31
-33 0 -135 -64 -185 -116 -80 -85 -121 -203 -115 -333 3 -77 10 -157 16 -186
3 -11 8 -42 12 -70 5 -27 9 -52 10 -55 1 -3 5 -25 10 -50 5 -25 9 -47 10 -50
3 -14 16 -78 20 -100 6 -33 25 -132 31 -167 2 -16 7 -35 10 -43 3 -8 7 -85 10
-170 3 -144 -3 -216 -25 -265 -43 -97 -61 -126 -100 -168 -50 -53 -124 -99
-191 -117 -25 -7 -88 -14 -140 -16 -115 -4 -128 -14 -126 -96 l1 -53 110 0
c95 -1 178 7 223 21 7 2 16 4 20 5 26 7 124 55 157 77 55 37 146 131 171 178
26 50 42 79 53 102 23 46 44 184 44 282 0 143 -6 186 -59 448 -25 125 -47 234
-48 242 -1 8 -6 38 -10 65 -4 28 -9 57 -10 65 -1 8 -5 20 -8 25 -4 6 -3 17 1
24 5 7 5 29 1 49 -35 195 95 379 290 408 69 11 65 6 66 77 1 37 -1 68 -5 68
-3 1 -15 3 -27 4 -175 19 -299 129 -320 286 -10 73 -5 222 11 299 12 56 16 77
21 110 3 19 15 76 25 125 24 108 38 178 45 225 3 19 7 37 9 40 15 24 23 288
12 370 -37 284 -239 492 -517 536 -36 5 -247 14 -251 10z"/>
<path d="M1678 3352 c-27 -2 -48 -5 -48 -6 0 -2 7 -20 15 -40 8 -20 15 -38 15
-41 -1 -5 27 -94 170 -540 21 -66 41 -130 45 -142 l6 -22 -63 20 c-35 12 -70
23 -78 26 -8 4 -17 7 -20 8 -3 1 -39 12 -80 25 -41 13 -77 24 -80 25 -3 1 -12
4 -20 8 -8 3 -60 20 -115 37 -55 17 -109 35 -120 39 -11 5 -62 22 -112 38 -81
26 -93 28 -94 14 -5 -65 -3 -1284 2 -1287 4 -2 49 10 100 27 52 17 102 32 111
34 9 2 25 8 35 13 10 6 20 10 23 10 3 -1 52 14 110 32 58 19 110 35 115 36 6
2 71 23 145 47 74 24 136 43 138 42 1 -1 -7 -28 -17 -61 -10 -32 -58 -180
-106 -329 -48 -148 -96 -296 -107 -328 -11 -32 -17 -61 -14 -64 2 -3 294 -5
648 -5 l643 -1 -2 24 c-2 31 -1 29 -57 204 -26 83 -70 222 -98 310 -27 88 -56
180 -64 204 -8 24 -13 45 -12 46 3 2 107 -29 138 -42 8 -3 20 -7 25 -8 6 -2
75 -24 155 -50 80 -26 181 -59 225 -72 44 -14 89 -29 100 -34 37 -15 116 -39
128 -39 16 0 18 1294 2 1297 -12 3 -56 -7 -70 -16 -5 -3 -14 -6 -20 -7 -10 -2
-226 -72 -537 -174 -82 -27 -148 -44 -148 -39 0 6 15 56 34 112 18 56 68 210
111 342 42 132 83 258 90 280 7 22 12 42 10 44 -5 4 -1192 7 -1257 3z"/>
</g>
</svg>
