<svg viewBox="0 0 1495.842 543.422" xmlns="http://www.w3.org/2000/svg"><path d="M113.812 19.828c-8.742 0-16.726 1.527-23.953 4.578-7.218 3.055-13.421 7.43-18.609 13.125-5.187 5.7-9.258 12.617-12.203 20.75-2.95 8.137-4.422 17.188-4.422 27.156 0 11.594.91 22.887 2.734 33.875a792.804 792.804 0 0 0 6.11 32.485 868.968 868.968 0 0 1 6.094 32.047 190.017 190.017 0 0 1 2.75 32.187c0 7.524-1.274 14.438-3.813 20.75-2.543 6.305-5.898 11.793-10.062 16.469A58.963 58.963 0 0 1 44.094 265c-5.387 3.156-11.031 5.344-16.938 6.563 5.907 1.43 11.551 3.718 16.938 6.875a58.81 58.81 0 0 1 14.344 11.734c4.164 4.68 7.519 10.172 10.062 16.484 2.54 6.305 3.813 13.219 3.813 20.75 0 10.781-.918 21.512-2.75 32.188a922.16 922.16 0 0 1-6.094 32.187 833.918 833.918 0 0 0-6.11 32.656c-1.824 10.981-2.734 22.168-2.734 33.563 0 9.957 1.473 19.004 4.422 27.14 2.945 8.145 7.016 15.063 12.203 20.75 5.188 5.696 11.39 10.07 18.61 13.126 7.226 3.05 15.21 4.578 23.952 4.578h10.079c1.82 0 3.546.61 5.171 1.828 1.633 1.219 2.454 2.945 2.454 5.187v12.813h-16.782c-13.43 0-25.48-2.188-36.156-6.563-10.68-4.367-19.68-10.464-27-18.297-7.324-7.835-12.922-17.042-16.797-27.625-3.867-10.574-5.797-22.062-5.797-34.468 0-11.395.961-22.43 2.891-33.11 1.938-10.675 4.023-21.3 6.266-31.875a1157.53 1157.53 0 0 0 6.25-31.734c1.937-10.582 2.906-21.469 2.906-32.656 0-6.707-1.121-12.86-3.36-18.453-2.23-5.594-5.433-10.473-9.609-14.641-4.168-4.176-9.152-7.383-14.953-9.625-5.793-2.238-12.25-3.36-19.375-3.36v-18.609c7.125 0 13.582-1.117 19.375-3.36 5.8-2.237 10.785-5.44 14.953-9.609 4.176-4.164 7.379-9.046 9.61-14.64 2.238-5.594 3.359-11.75 3.359-18.469 0-11.187-.969-22.066-2.906-32.64a1146.042 1146.042 0 0 0-6.25-31.735 1099.1 1099.1 0 0 1-6.266-31.875c-1.93-10.687-2.89-21.723-2.89-33.11 0-12.413 1.93-23.91 5.796-34.484 3.875-10.582 9.473-19.785 16.797-27.609 7.32-7.832 16.32-13.938 27-18.313C89.254 2.188 101.305 0 114.734 0h16.782v12.813c0 2.242-.82 3.968-2.454 5.187-1.625 1.219-3.351 1.828-5.171 1.828z"/><path d="m238.235 340.49-103.383 33.205V202.179l103.383 33.203v-.308l-33.207-103.38h171.515l-33.203 103.38v.308l103.38-33.203v171.516L343.34 340.49v.312l33.203 103.375H205.028l33.207-103.375"/><path d="M581.569 281.016c-7.117 0-13.574 1.12-19.375 3.359-5.793 2.242-10.777 5.45-14.953 9.625-4.168 4.168-7.371 9.047-9.61 14.64-2.242 5.594-3.359 11.747-3.359 18.454 0 11.187.961 22.074 2.89 32.656a1172.78 1172.78 0 0 0 6.266 31.734c2.239 10.575 4.32 21.2 6.25 31.875 1.938 10.68 2.907 21.715 2.907 33.11 0 12.406-1.934 23.894-5.797 34.469-3.867 10.582-9.461 19.789-16.782 27.625-7.324 7.832-16.324 13.93-27 18.296-10.68 4.375-22.73 6.563-36.156 6.563H450.07v-12.813c0-2.242.812-3.968 2.437-5.187 1.625-1.219 3.352-1.828 5.188-1.828h10.062c8.75 0 16.735-1.528 23.954-4.578 7.218-3.055 13.421-7.43 18.609-13.125 5.187-5.688 9.254-12.606 12.203-20.75 2.957-8.137 4.438-17.184 4.438-27.141 0-11.395-.918-22.582-2.75-33.563a848.685 848.685 0 0 0-6.11-32.656 960.149 960.149 0 0 1-6.094-32.187 189.582 189.582 0 0 1-2.75-32.188c0-7.531 1.27-14.445 3.813-20.75 2.54-6.312 5.895-11.804 10.062-16.484a59.105 59.105 0 0 1 14.344-11.735c5.395-3.156 11.04-5.445 16.938-6.875-5.899-1.218-11.543-3.406-16.938-6.562a59.26 59.26 0 0 1-14.344-11.75c-4.167-4.676-7.523-10.164-10.062-16.469-2.543-6.312-3.813-13.226-3.813-20.75 0-10.781.915-21.508 2.75-32.187a902.91 902.91 0 0 1 6.094-32.047 806.275 806.275 0 0 0 6.11-32.485c1.832-10.988 2.75-22.28 2.75-33.875 0-9.968-1.48-19.019-4.438-27.156-2.95-8.133-7.016-15.05-12.203-20.75-5.188-5.695-11.39-10.07-18.61-13.125-7.218-3.05-15.203-4.578-23.953-4.578h-10.062c-1.836 0-3.563-.61-5.188-1.828-1.625-1.219-2.437-2.945-2.437-5.188V0h16.781c13.426 0 25.477 2.187 36.156 6.562 10.676 4.375 19.676 10.481 27 18.313 7.32 7.824 12.915 17.027 16.782 27.61 3.863 10.574 5.797 22.07 5.797 34.484 0 11.386-.97 22.422-2.907 33.11a1085.98 1085.98 0 0 1-6.25 31.874 1160.962 1160.962 0 0 0-6.265 31.734c-1.93 10.575-2.89 21.454-2.89 32.641 0 6.719 1.116 12.875 3.358 18.469 2.239 5.594 5.442 10.476 9.61 14.64 4.176 4.168 9.16 7.372 14.953 9.61 5.8 2.242 12.258 3.36 19.375 3.36z"/><path d="M820.49 24.054c-.543.637-1.133.953-1.766.953-.96 0-2.43-1.094-4.406-3.281-1.969-2.188-4.851-4.555-8.64-7.11-3.782-2.562-8.664-4.937-14.641-7.125-5.969-2.187-13.434-3.28-22.39-3.28-9.18 0-17.313 1.417-24.407 4.25-7.094 2.823-13.043 6.585-17.844 11.28-4.793 4.688-8.445 10.125-10.953 16.313-2.511 6.187-3.765 12.64-3.765 19.36 0 8.636 1.68 15.835 5.047 21.593 3.363 5.762 7.765 10.617 13.203 14.562 5.437 3.95 11.675 7.231 18.718 9.844a614.59 614.59 0 0 0 21.438 7.516 539.675 539.675 0 0 1 21.437 7.594c7.04 2.668 13.282 6.058 18.72 10.171 5.444 4.106 9.847 9.172 13.202 15.204 3.364 6.023 5.047 13.562 5.047 22.625 0 9.18-1.547 17.742-4.64 25.687-3.094 7.95-7.579 14.883-13.454 20.797-5.867 5.918-13.062 10.586-21.593 14-8.532 3.414-18.243 5.125-29.125 5.125-7.575 0-14.344-.668-20.313-2-5.969-1.332-11.437-3.25-16.406-5.75a67.777 67.777 0 0 1-13.672-9.125c-4.156-3.582-8.156-7.664-12-12.25l.64-.64c.32-.32.587-.563.798-.72.218-.156.593-.234 1.125-.234.632 0 1.566.668 2.796 2 1.227 1.336 2.907 3.043 5.032 5.125 2.132 2.074 4.695 4.29 7.687 6.64 2.988 2.345 6.613 4.56 10.875 6.642 4.27 2.074 9.149 3.777 14.64 5.109 5.5 1.336 11.766 2 18.798 2 10.351 0 19.554-1.649 27.609-4.953 8.05-3.313 14.875-7.766 20.469-13.36 5.601-5.601 9.867-12.14 12.797-19.609 2.937-7.469 4.406-15.414 4.406-23.844 0-7.031-1.094-13.101-3.281-18.219-2.18-5.124-5.137-9.523-8.875-13.203-3.73-3.687-8.078-6.836-13.047-9.453-4.961-2.613-10.266-4.957-15.922-7.031a297.073 297.073 0 0 0-17.266-5.766 260.164 260.164 0 0 1-17.281-5.843c-5.656-2.133-10.965-4.563-15.922-7.282-4.96-2.718-9.308-6.02-13.047-9.906-3.73-3.894-6.687-8.535-8.875-13.922-2.187-5.394-3.281-11.77-3.281-19.125 0-7.144 1.332-14 4-20.562 2.664-6.563 6.555-12.348 11.672-17.36 5.125-5.007 11.445-9.007 18.969-12 7.52-2.988 16.132-4.484 25.843-4.484 10.875 0 20.5 1.762 28.875 5.281 8.375 3.524 16.243 9.121 23.61 16.797z"/><path d="M930.886 111.726h15.047c2.02 0 3.722-.051 5.109-.157 1.383-.101 2.633-.343 3.75-.718a12.775 12.775 0 0 0 3.281-1.672c1.07-.75 2.25-1.711 3.531-2.891L1065.932 6.132c1.164-.957 2.125-1.625 2.875-2s1.707-.563 2.875-.563h1.922L964.808 107.882c-1.711 1.605-3.23 2.808-4.563 3.61-1.336.804-3.016 1.417-5.047 1.843 1.926.312 3.61.898 5.047 1.75 1.438.855 2.848 1.976 4.234 3.36l115.531 109.124h-1.609c-1.594 0-2.742-.156-3.437-.469-.688-.32-1.461-.91-2.313-1.765l-110.093-104c-1.594-1.5-2.98-2.676-4.157-3.531-1.168-.852-2.34-1.489-3.515-1.907-1.18-.425-2.461-.691-3.844-.796-1.387-.114-3.09-.172-5.11-.172h-15.046v112.64h-3.844V3.257h3.844z"/><path d="M1165.133 3.569c.957 0 1.703.43 2.235 1.281l158.562 215.844a7.926 7.926 0 0 1-.172-1.687V3.569h3.203v224h-.953c-.648 0-1.234-.375-1.765-1.125L1166.883 9.647c.102.649.157 1.32.157 2.016v215.906h-3.188v-224z"/><path d="M1453.765 227.569h-3.843v-224h3.843z" /><path d="M729.287 379.567h13.438c2.031 0 3.789-.078 5.281-.234 1.488-.164 2.848-.461 4.078-.89a11.546 11.546 0 0 0 3.36-1.829c1.007-.8 2.101-1.789 3.28-2.969l91.36-93.921c1.602-1.813 3.176-3.036 4.719-3.672 1.55-.645 3.39-.969 5.515-.969h13.125l-98.874 101.61c-2.032 2.136-3.825 3.792-5.375 4.968-1.543 1.168-3.274 2.125-5.188 2.875 2.238.637 4.266 1.621 6.078 2.953 1.813 1.336 3.625 3.07 5.438 5.203L879.678 501.49h-13.266c-2.781 0-4.789-.344-6.015-1.031-1.22-.696-2.418-1.79-3.594-3.281l-95.672-97.922a52.946 52.946 0 0 0-3.297-3.047 15.704 15.704 0 0 0-3.36-2.156c-1.218-.582-2.655-1.008-4.312-1.282-1.656-.27-3.761-.406-6.312-.406h-14.563V501.49h-16.484V275.083h16.484z"/><path d="M1177.127 388.208c0 17.492-2.617 33.359-7.843 47.609-5.23 14.242-12.59 26.402-22.078 36.484-9.493 10.074-20.875 17.86-34.157 23.36-13.28 5.492-27.921 8.234-43.921 8.234s-30.618-2.742-43.844-8.234c-13.23-5.5-24.59-13.286-34.078-23.36-9.492-10.082-16.852-22.242-22.078-36.484-5.23-14.25-7.844-30.117-7.844-47.61 0-17.382 2.613-33.195 7.844-47.437 5.226-14.238 12.586-26.394 22.078-36.468 9.488-10.082 20.847-17.895 34.078-23.438 13.226-5.55 27.844-8.328 43.844-8.328s30.64 2.746 43.921 8.234c13.282 5.493 24.664 13.305 34.157 23.438 9.488 10.137 16.847 22.324 22.078 36.562 5.226 14.242 7.843 30.055 7.843 47.438zm-16.968 0c0-15.782-2.188-29.961-6.563-42.547-4.367-12.594-10.547-23.258-18.547-32-8-8.75-17.605-15.441-28.812-20.078-11.2-4.645-23.57-6.969-37.11-6.969-13.437 0-25.761 2.324-36.968 6.969-11.2 4.637-20.824 11.328-28.875 20.078-8.055 8.742-14.293 19.406-18.719 32-4.43 12.586-6.64 26.765-6.64 42.547 0 15.898 2.21 30.109 6.64 42.64 4.426 12.531 10.664 23.172 18.719 31.922 8.05 8.75 17.676 15.418 28.875 20 11.207 4.586 23.531 6.875 36.969 6.875 13.539 0 25.91-2.289 37.109-6.875 11.207-4.582 20.812-11.25 28.812-20s14.18-19.39 18.547-31.922c4.375-12.531 6.563-26.742 6.563-42.64z"/><path d="M1495.842 388.208c0 17.492-2.618 33.226-7.844 47.203-5.219 13.969-12.578 25.86-22.078 35.672-9.493 9.812-20.875 17.336-34.157 22.562-13.28 5.23-27.921 7.844-43.921 7.844h-82.719V275.083h82.719c16 0 30.64 2.617 43.921 7.844 13.282 5.23 24.664 12.75 34.157 22.562 9.5 9.813 16.859 21.711 22.078 35.688 5.226 13.968 7.844 29.648 7.844 47.03zm-16.954 0c0-15.781-2.187-29.86-6.562-42.234-4.375-12.375-10.563-22.829-18.563-31.36-8-8.539-17.601-15.05-28.796-19.531-11.2-4.477-23.575-6.719-37.125-6.719h-66.235v199.844h66.235c13.55 0 25.925-2.239 37.125-6.719 11.195-4.477 20.796-10.984 28.796-19.516 8-8.53 14.188-18.984 18.563-31.359 4.375-12.375 6.562-26.508 6.562-42.406z"/></svg>
