<svg viewBox="0 0 600.367 135.002" xmlns="http://www.w3.org/2000/svg"><path d="M13.547.41c1.49-.36 3.03-.39 4.56-.41 33.35.06 66.71 0 100.06.03 9.22.03 17.49 8.56 16.82 17.84-.05 31.67-.02 63.35-.02 95.03-.07 3.56.42 7.28-.92 10.67-2.37 6.53-8.88 11.37-15.88 11.42-33.72.02-67.44.01-101.15.01-9.07-.01-17.12-8.04-16.95-17.15-.11-33.34-.06-66.68-.02-100.01-.36-8.08 5.58-15.77 13.5-17.43m12.1 49.39h61.15c.07-5.35-.55-11.21-4.28-15.36-4.14-4.49-10.54-5.79-16.4-5.93h-40.47m.4 28.53c-.75 5.9-.28 11.88-.37 17.81-.19 1.47.42 3.71 2.35 3.35 18.99.11 37.98-.07 56.97.08 3.92-.29 3.97 6.66.2 6.78-19.64.19-39.3-.03-58.95.1-.98 3.84-.49 7.81-.58 11.71 0 3.22-.33 6.52.7 9.64 20.59.03 41.18 0 61.78.01 5.99-.07 12.49-1.35 16.85-5.78 3.97-4.23 4.51-10.37 4.29-15.88-.26-6.82 1.13-14.32-2.8-20.39-3.7-5.71-10.93-7.56-17.36-7.52-21.03.03-42.06-.14-63.08.09z" fill="#e74c3c"/><path d="M25.647 28.51h40.47c5.86.14 12.26 1.44 16.4 5.93 3.73 4.15 4.35 10.01 4.28 15.36h-61.15zm0 28.44h63.48c6.43-.04 13.66 1.81 17.36 7.52 3.93 6.07 2.54 13.57 2.8 20.39.22 5.51-.32 11.65-4.29 15.88-4.36 4.43-10.86 5.71-16.85 5.78h-62.5V85.06h59.55c3.77-.12 3.72-7.07-.2-6.78h-59.35z" fill="#fff"/><path d="M167.927 42.87c0-1.77.12-4.28 2.28-4.72 2.71-.54 7.44-1.27 8.23 2.37.51 3.54.15 7.14.23 10.71 11.37.07 22.75-.13 34.12.1 6.84.41 14.52 1.03 19.72 6.03 4.62 4.6 3.08 11.61 3.33 17.46-.34 6.15 1.46 13.52-3.32 18.43-5.87 5.69-14.63 6.01-22.33 6.31-9.85-.21-20.01.99-29.53-2.18-3.72-1.29-7.53-2.96-10.21-5.95-2.07-2.31-2.57-5.52-2.53-8.52.05-13.35.02-26.7.01-40.04m10.74 17.3c.15 8.55-.28 17.11.19 25.64 1.71 2.28 4.64 3.04 7.27 3.7 6.86 1.69 13.96.96 20.94 1.11 4.58-.06 9.28.34 13.75-.93 2.16-.61 4.16-2.38 4.32-4.74.33-5.02-.03-10.07.15-15.1-.06-2.46.42-5.59-2.02-7.13-3.24-2.17-7.33-2.28-11.1-2.53-11.17-.07-22.34-.02-33.5-.02zm136.54-18.37c-.23-1.84 1.12-3.58 3.01-3.61 2.38-.29 5.72-.86 7.14 1.65 1.05 3.69.42 7.6.56 11.39 3.95.1 7.91-.22 11.85.13 4.55.48 4.45 9.34-.59 8.77-3.75.15-7.5-.03-11.24.03.09 8.53-.22 17.07.12 25.59 3.21 4.28 9.44 4.43 14.35 4.95.75 2.99 1.26 6.55-1.16 8.95-6.4-.7-13.09-1.67-18.51-5.41-3.4-2.24-5.84-6.15-5.58-10.32.06-14.04-.04-28.08.05-42.12zm32.55.05c-.41-2.06 1.3-3.76 3.3-3.74 2.44-.31 6.73-.62 6.99 2.78.35 14.34-.02 28.71.16 43.05-.16 1.55.62 3.01 2 3.72 3.87 2.23 8.41 2.71 12.77 3.14-.06 2.79 1.74 7.42-1.83 8.62-6.12-.21-12.36-1.65-17.61-4.91-3.3-2.01-5.89-5.63-5.79-9.61-.01-14.35-.03-28.7.01-43.05zm242.34-1.89c.75-2.58 3.99-2.21 6.08-2.14 1.72.07 4.18.88 4.12 3 .13 14.69.01 29.39.06 44.08.26 5.41-4.4 9.29-8.94 11.21-10.12 4.69-21.54 3.22-32.33 3.47-7.87-.26-16.63-.45-23-5.71-4.96-4.59-3.6-11.97-3.81-18.01.36-6.07-.71-13.14 3.67-18.07 4.97-5.23 12.69-6.03 19.5-6.45 11.5-.25 23.01-.04 34.52-.1.09-3.76-.23-7.54.13-11.28m-35.65 20.33c-3.89.45-9.05.64-11.01 4.66-.57 4.95-.19 9.96-.41 14.93.12 2.95-.39 6.73 2.44 8.65 4.33 2.7 9.72 1.94 14.58 2.1 8.21-.31 16.6.86 24.64-1.3 2.52-.64 5.32-2.44 5.23-5.37.14-7.92.01-15.86.03-23.78-11.83.05-23.67-.19-35.5.11zM264.277 51c6.61-.32 13.22-.02 19.83-.14 7.29.23 15.58.58 21.12 5.95 4.83 5.12 2.91 12.69 3.28 19.02-.3 5.78 1.41 12.72-3.17 17.28-6.63 6.4-16.51 6.48-25.14 6.47-9.85-.15-20.24.92-29.45-3.35-4.22-1.83-8.15-5.57-8.27-10.45-.08-6.66-.01-13.34-.03-20-.08-4.02 2.35-7.77 5.64-9.93 4.76-3.21 10.53-4.48 16.19-4.85m-3.7 9.53c-3.02.69-6.89 1.85-7.56 5.36-.44 4.3-.03 8.65-.19 12.97.16 3.03-.83 7.08 2.22 9.02 6.01 3.6 13.33 2.6 20.02 2.73 6.97-.19 14.68 1.08 20.89-2.89 2.69-1.69 1.91-5.24 2.05-7.91-.26-5.15.42-10.37-.34-15.48-1.96-4.26-7.61-4.1-11.59-4.49-8.49.19-17.09-.7-25.5.69zm139.45-.75c-4.83.29-5.09-9.18-.01-8.8 11.36-.12 22.79-.58 34.09.78 5.27.74 11.06 2.2 14.46 6.64 2.76 3.54 2.22 8.28 2.31 12.48-.2 5.83.38 11.71-.42 17.5-.96 5.51-6.29 8.93-11.4 10.05-9.51 1.98-19.28.84-28.91 1.14-9.29.25-19.82.02-27.05-6.69-3.92-3.59-3.1-9.31-3.05-14.08-.07-3.9 2.16-7.53 5.34-9.66 5.19-3.52 11.66-4.17 17.76-4.28 12.49-.14 24.98.1 37.46-.12-2.17-4.16-7.31-4.69-11.48-4.9-9.7-.13-19.4.07-29.1-.06m-9.05 17.96c-.86 2.74-.58 5.81-.19 8.63 2.2 3.24 6.67 3.81 10.29 4.2 10.01.09 20.03.07 30.04.01 3.16-.18 7.41-.53 8.62-4.05 1.32-4.12.33-8.51.43-12.75-12.71 0-25.42-.02-38.13 0-3.89.18-8.42.79-11.06 3.96zM479.297 51c6.6-.28 13.21-.07 19.82-.15 7 .23 14.56.39 20.62 4.35 3.52 2.28 4.87 6.65 4.68 10.66-.1 10.01.09 20.01-.08 30.01.13 1.99-1.42 3.55-3.35 3.65-2.77.21-7.33.23-7.22-3.67-.31-10.33.01-20.68-.13-31.02.33-2.62-2.5-3.98-4.65-4.43-5.57-1.02-11.28-.46-16.91-.59-5.98.13-12.02-.39-17.96.48-2.38.29-5.52 1.58-5.22 4.5-.12 10.35.12 20.71-.08 31.05.14 2.5-2.42 4.07-4.69 3.74-2.42.11-6.12-.43-5.95-3.65-.11-10.38-.03-20.77-.04-31.15-.11-3.79 1.68-7.65 4.94-9.69 4.8-3.09 10.65-3.71 16.22-4.09z"/></svg>