<svg viewBox="0 0 753.6 126.61" xmlns="http://www.w3.org/2000/svg"><path d="M16.993 28.033h37.094V4.225H64.65v58.261H54.087V38.677H16.993v23.809H6.43V4.222h10.563zm106.33 19.624q0 2.722-.691 4.915-.691 2.154-1.828 3.82-1.139 1.624-2.642 2.803-1.503 1.137-3.169 1.869-1.625.731-3.332 1.098-1.664.323-3.169.323H89.44q-2.193 0-4.793-.77-2.6-.773-4.836-2.52-2.193-1.788-3.698-4.591-1.462-2.843-1.462-6.947v-14.3q0-4.064 1.464-6.868 1.502-2.843 3.697-4.591 2.235-1.787 4.835-2.559 2.6-.772 4.794-.772h19.055q4.063 0 6.907 1.462 2.843 1.463 4.59 3.698 1.748 2.194 2.52 4.794.812 2.6.812 4.835zm-10.564-14.22q0-2.195-1.098-3.25-1.097-1.057-3.169-1.057H89.52q-2.112 0-3.209 1.098-1.098 1.056-1.098 3.128v14.301q0 2.071 1.098 3.169 1.098 1.097 3.21 1.097h18.973q2.154 0 3.21-1.098 1.057-1.096 1.057-3.168zm67.971 14.22q0 1.502-.365 3.169-.326 1.665-1.056 3.332-.732 1.624-1.91 3.128-1.138 1.502-2.804 2.681-1.625 1.137-3.778 1.828-2.153.691-4.876.691h-19.055q-1.502 0-3.169-.325-1.666-.366-3.331-1.097-1.625-.732-3.129-1.869-1.502-1.179-2.681-2.803-1.138-1.666-1.828-3.82-.691-2.193-.691-4.915V0h10.563v47.658q0 1.95 1.219 3.128 1.219 1.138 3.047 1.138h19.055q1.992 0 3.088-1.18 1.137-1.178 1.137-3.086v-14.3q0-1.992-1.178-3.089-1.178-1.138-3.047-1.138h-19.055V18.567h19.055q1.504 0 3.17.365 1.666.325 3.29 1.056 1.666.732 3.17 1.91 1.503 1.138 2.64 2.803 1.138 1.626 1.828 3.78.691 2.152.691 4.875zm57.449 0q0 1.502-.365 3.169-.326 1.665-1.056 3.332-.732 1.624-1.91 3.128-1.138 1.502-2.804 2.681-1.625 1.137-3.78 1.828-2.151.691-4.874.691h-19.055q-1.502 0-3.169-.325-1.666-.366-3.332-1.097-1.624-.732-3.128-1.869-1.503-1.179-2.681-2.803-1.138-1.666-1.83-3.82-.69-2.193-.69-4.915V0h10.564v47.658q0 1.95 1.219 3.128 1.219 1.138 3.047 1.138h19.055q1.991 0 3.088-1.18 1.137-1.178 1.137-3.086v-14.3q0-1.992-1.178-3.089-1.178-1.138-3.047-1.138h-19.055V18.567h19.055q1.503 0 3.17.365 1.666.325 3.29 1.056 1.666.732 3.17 1.91 1.502 1.138 2.64 2.803 1.138 1.626 1.828 3.78.691 2.152.691 4.875zm19.746-38.11h-10.563V-.001h10.563zm0 52.94h-10.563v-43.92h10.563zm52.573-14.829q0 2.722-.691 4.915-.69 2.154-1.828 3.82-1.137 1.624-2.641 2.803-1.502 1.137-3.169 1.869-1.625.731-3.332 1.098-1.665.323-3.168.323h-28.603V51.923h28.522q2.153 0 3.25-1.098 1.097-1.095 1.097-3.167-.203-4.227-4.266-4.227h-16.373q-3.494 0-5.932-1.218-2.438-1.219-3.982-3.047-1.502-1.828-2.193-3.94-.65-2.113-.65-3.942 0-3.535 1.259-5.932 1.26-2.438 3.169-3.94 1.909-1.504 4.144-2.155 2.235-.69 4.185-.69h25.962V29.13h-25.881q-.813 0-1.3.204-.447.162-.69.487-.204.285-.244.65-.04.326-.04.65.04.65.242 1.016.203.366.488.528.326.162.69.204h17.146q4.063 0 6.907 1.462 2.843 1.463 4.59 3.698 1.748 2.193 2.52 4.794.812 2.6.812 4.835zm46.601-18.528h-18.444v33.357h-10.686V29.13h-13.73V18.567h13.732V4.225h10.685v14.342h18.445zm55.377 37.582q0 2.722-.69 4.876-.691 2.193-1.828 3.818-1.139 1.666-2.642 2.804-1.502 1.178-3.169 1.909-1.625.731-3.29 1.056-1.667.366-3.17.366h-19.055V70.978h19.055q2.114 0 3.17-1.097t1.056-3.17V18.568h10.563zm-14.789-4.225h-19.055q-2.276 0-4.876-.772-2.558-.772-4.793-2.52-2.235-1.787-3.699-4.59-1.461-2.844-1.461-6.947v-29.09h10.563v29.09q0 2.072 1.097 3.168 1.098 1.097 3.25 1.097h18.974zm67.404 0h-28.643q-2.195 0-4.795-.772t-4.835-2.52q-2.194-1.787-3.697-4.59-1.462-2.844-1.462-6.947V33.357q0-1.504.324-3.17.366-1.666 1.097-3.29.732-1.667 1.87-3.17 1.178-1.503 2.803-2.641 1.665-1.137 3.82-1.829 2.152-.69 4.875-.69h28.643V29.13h-28.643q-2.072 0-3.17 1.057-1.056 1.056-1.056 3.25v14.22q0 2.073 1.097 3.17 1.097 1.096 3.21 1.096h28.562zm50.338-40.67q.65 1.502.326 3.047-.286 1.544-1.382 2.681l-24.418 24.377h25.393v10.563h-38.11q-1.625 0-2.966-.893-1.3-.934-1.95-2.356-.61-1.503-.324-3.048.323-1.583 1.502-2.762l24.295-24.297h-25.392V18.566h38.191q1.584 0 2.885.853 1.34.853 1.95 2.397zm57.084 40.67H561.95V38.11q0-2.072-.733-3.698-.69-1.664-1.909-2.843-1.22-1.179-2.884-1.788-1.625-.65-3.536-.65h-18.486v33.356H523.84v-38.68q0-1.095.406-2.03.407-.975 1.138-1.665.73-.732 1.706-1.139.976-.405 2.072-.405h23.81q1.99 0 4.183.446 2.235.447 4.389 1.463 2.193.975 4.144 2.52 1.99 1.502 3.494 3.696 1.544 2.153 2.438 4.997.893 2.844.893 6.42zm19.989-52.94h-10.563V-.001h10.563zm0 52.94h-10.563v-43.92h10.563zm57.367-29.375q0 2.193-.772 4.753-.772 2.52-2.52 4.713-1.705 2.153-4.509 3.616-2.762 1.463-6.744 1.463h-19.055V37.621h19.055q2.154 0 3.332-1.3 1.179-1.34 1.179-3.291 0-2.072-1.341-3.25-1.3-1.179-3.17-1.179h-19.055q-2.153 0-3.332 1.34-1.179 1.3-1.179 3.252v14.749q0 2.112 1.302 3.29 1.34 1.179 3.29 1.179h18.974v10.076h-19.055q-2.194 0-4.753-.772-2.52-.772-4.713-2.48-2.154-1.747-3.617-4.509-1.462-2.803-1.462-6.784v-14.83q0-2.194.772-4.713.772-2.559 2.479-4.713 1.746-2.194 4.509-3.657 2.804-1.462 6.785-1.462h19.055q2.194 0 4.713.772 2.56.772 4.714 2.52 2.193 1.705 3.656 4.51 1.462 2.761 1.462 6.743zm14.18 24.052q0 1.098-.447 2.072-.406.935-1.137 1.665-.692.691-1.667 1.098-.934.406-1.99.406-1.098 0-2.072-.406-.935-.407-1.667-1.098-.69-.73-1.096-1.664-.406-.976-.406-2.073 0-1.057.406-1.991.407-.975 1.098-1.666.73-.731 1.664-1.137.975-.447 2.073-.447 1.056 0 1.99.447.975.406 1.667 1.137.731.691 1.137 1.666.447.935.447 1.99zm56.677-9.507q0 2.722-.691 4.915-.691 2.155-1.828 3.82-1.138 1.625-2.641 2.803-1.502 1.138-3.169 1.87-1.625.73-3.291 1.097-1.665.324-3.169.324h-19.055V51.923h19.055q2.113 0 3.169-1.098 1.056-1.096 1.056-3.168v-14.22q0-2.195-1.098-3.25-1.055-1.057-3.127-1.057h-18.974q-2.153 0-3.25 1.098-1.098 1.056-1.098 3.128V76.22h-10.563V33.356q0-2.723.69-4.877.691-2.153 1.829-3.778 1.178-1.665 2.68-2.803 1.504-1.179 3.13-1.91 1.665-.731 3.33-1.056 1.708-.365 3.17-.365h19.056q2.721 0 4.875.69 2.153.691 3.78 1.828 1.664 1.139 2.802 2.641 1.179 1.504 1.91 3.17.73 1.625 1.055 3.29.367 1.667.367 3.17zm28.317 14.83h-4.712q-2.276 0-4.877-.773-2.558-.772-4.793-2.519-2.234-1.788-3.697-4.591-1.462-2.843-1.462-6.947V-.001h10.563v47.658q0 1.95 1.22 3.128 1.218 1.138 3.047 1.138h4.712zM21.107 110.864q0 1.93-.678 3.55-.663 1.62-1.84 2.798-1.18 1.164-2.8 1.827-1.62.662-3.52.662H1.93q-.412 0-.765-.147-.354-.147-.619-.398-.25-.265-.398-.618-.147-.354-.147-.766v-17.263q0-.397.147-.75.148-.354.398-.62.265-.264.619-.412.353-.147.766-.147h10.34q1.9 0 3.52.663t2.798 1.84q1.178 1.164 1.841 2.8.678 1.62.678 3.534zm-3.83-3.447q0-1.119-.368-2.047-.354-.928-1.016-1.576-.663-.663-1.591-1.016-.913-.369-2.033-.369H3.83v13.463h8.44q1.12 0 2.033-.354.928-.368 1.59-1.016.663-.663 1.017-1.576.368-.928.368-2.062zm21.019.192h-8.617q-.78 0-1.178.398-.398.382-.398 1.134v10.56h-3.83v-10.56q0-.987.25-1.768.251-.78.664-1.37.427-.604.972-1.016.545-.427 1.134-.692.604-.265 1.208-.383.618-.133 1.149-.133h8.646zm19.928 10.163q0 .412-.147.766-.148.353-.413.618-.25.25-.604.398-.338.147-.736.147h-8.66q-.708 0-1.518-.162-.795-.162-1.576-.515-.78-.368-1.517-.913-.722-.56-1.267-1.34-.545-.796-.883-1.827-.324-1.031-.324-2.327v-8.838h3.83v8.838q0 .75.25 1.355.265.589.706 1.016.442.427 1.032.663.603.22 1.296.22h6.701V103.78h3.83zm22.3 1.929H75l-7.718-7.452q-.648-.59-.604-1.473.03-.413.207-.766.191-.369.515-.619l6.996-5.641h6.128l-9.014 7.261zm-14.818 0h-3.83V97.048h3.83zm32.89-5.273q0 .796-.28 1.724-.28.913-.913 1.708-.618.78-1.635 1.311-1.001.53-2.445.53h-6.908q-.795 0-1.723-.28-.913-.28-1.709-.898-.78-.633-1.31-1.635-.53-1.016-.53-2.46 0-.795.28-1.723t.898-1.708q.633-.796 1.635-1.326 1.016-.53 2.46-.53h6.907v3.652h-6.908q-.78 0-1.207.487-.428.47-.428 1.178 0 .751.486 1.178.501.413 1.179.413h6.878q.78 0 1.208-.472.427-.471.427-1.178v-5.347q0-.75-.471-1.193-.457-.442-1.164-.442h-8.41v-3.638h8.41q.796 0 1.709.28.928.28 1.708.913.796.619 1.326 1.635.53 1.002.53 2.445zm17.204-6.819h-8.617q-.78 0-1.178.398-.398.382-.398 1.134v10.56h-3.83v-10.56q0-.987.251-1.768.25-.78.663-1.37.427-.604.972-1.016.545-.427 1.134-.692.604-.265 1.208-.383.619-.133 1.149-.133h8.646zm21.224 12.092h-5.523l-7.718-7.452q-.648-.59-.604-1.473.03-.413.206-.766.192-.369.516-.619l6.996-5.641h6.127l-9.014 7.261zm-14.817 0h-3.83V97.048h3.83zm20.856-19.191h-3.83v-3.462h3.83zm0 19.191h-3.83V103.78h3.83zm31.314-5.376q0 1.488-.545 2.519-.53 1.016-1.34 1.664-.795.634-1.738.914t-1.753.28h-12.284v-3.83h12.284q.78 0 1.149-.398.383-.398.383-1.149v-3.255h-13.816v-3.859h13.816v-3.226q0-1.576-1.532-1.576h-12.284v-3.83h12.284q.987 0 1.768.251.78.25 1.37.678.603.412 1.03.957.428.545.693 1.15.265.588.383 1.207.132.604.132 1.134zm25.363-3.461q0 1.93-.677 3.55-.663 1.62-1.841 2.798-1.178 1.164-2.798 1.827-1.62.662-3.52.662h-10.34q-.413 0-.766-.147-.354-.147-.62-.398-.25-.265-.397-.618-.147-.354-.147-.766v-17.263q0-.397.147-.75.148-.354.398-.62.265-.264.619-.412.353-.147.765-.147h10.34q1.9 0 3.52.663t2.799 1.84q1.178 1.164 1.841 2.8.678 1.62.678 3.534zm-3.829-3.447q0-1.119-.368-2.047-.354-.928-1.016-1.576-.663-.663-1.591-1.016-.913-.369-2.033-.369h-8.44v13.463h8.44q1.12 0 2.033-.354.928-.368 1.59-1.016.663-.663 1.017-1.576.368-.928.368-2.062zm30.695 3.447h-13.815v-3.447h13.815zm31.211.206H245.71v-3.859h12.107zm1.709-8.66h-15.348v17.29h-3.83v-19.19q0-.397.148-.75.147-.354.398-.62.265-.264.618-.412.354-.147.766-.147h17.248zm6.554-1.9h-3.83v-3.462h3.83zm0 19.191h-3.83V103.78h3.83zm10.664 0h-1.708q-.825 0-1.768-.28-.928-.28-1.738-.913-.81-.648-1.34-1.664-.53-1.031-.53-2.519V97.048h3.83v17.277q0 .707.44 1.134.443.413 1.106.413h1.708zm18.898-5.273q0 .796-.28 1.724-.28.913-.913 1.708-.62.78-1.635 1.311-1.002.53-2.445.53h-6.908q-.796 0-1.724-.28-.913-.28-1.708-.898-.78-.633-1.311-1.635-.53-1.016-.53-2.46 0-.795.28-1.723t.898-1.708q.633-.796 1.635-1.326 1.016-.53 2.46-.53h6.908v3.652h-6.908q-.781 0-1.208.487-.427.47-.427 1.178 0 .751.486 1.178.5.413 1.178.413h6.879q.78 0 1.207-.472.427-.471.427-1.178v-5.347q0-.75-.47-1.193-.457-.442-1.164-.442h-8.41v-3.638h8.41q.795 0 1.708.28.928.28 1.709.913.795.619 1.325 1.635.53 1.002.53 2.445zm17.483 5.273h-3.83v-10.56q0-.752-.397-1.134-.398-.398-1.179-.398h-4.978V119.7h-3.83v-14.02q0-.397.148-.736.147-.354.412-.604.265-.265.619-.412.353-.148.75-.148h6.909q.795 0 1.708.28.914.28 1.738.899v-1.179h5.185q.545 0 1.149.133.604.118 1.193.383.604.265 1.149.692.545.412.957 1.016.413.59.663 1.37.25.78.25 1.768v10.56h-3.83v-10.56q0-.752-.382-1.134-.368-.398-1.149-.398h-3.447q.192.707.192 1.532zm29.267-10.649q0 .796-.28 1.724-.28.913-.913 1.708-.62.78-1.635 1.311-1.002.53-2.445.53h-6.908v-3.638h6.908q.78 0 1.207-.471.427-.486.427-1.193 0-.751-.486-1.178-.47-.428-1.148-.428h-6.908q-.781 0-1.208.486-.427.472-.427 1.179v5.346q0 .766.471 1.193.486.428 1.193.428h6.879v3.652h-6.908q-.796 0-1.724-.28-.913-.28-1.708-.898-.78-.633-1.311-1.635-.53-1.016-.53-2.46v-5.376q0-.795.28-1.708.28-.928.898-1.709.633-.795 1.635-1.325 1.016-.53 2.46-.53h6.908q.795 0 1.708.28.928.279 1.709.912.795.619 1.325 1.635.53 1.002.53 2.445zm20.223 10.649h-3.83v-8.837q0-.751-.265-1.34-.25-.604-.692-1.031-.442-.428-1.046-.648-.59-.236-1.282-.236h-6.7V119.7h-3.83v-14.02q0-.397.147-.736.148-.354.413-.604.265-.265.618-.412.354-.148.752-.148h8.63q.723 0 1.518.162.81.162 1.59.53.796.354 1.503.914.722.545 1.267 1.34.56.78.884 1.812.324 1.03.324 2.327zm17.365-12.092h-6.687V119.7h-3.874v-12.09h-4.978v-3.83h4.978v-5.2h3.874v5.2h6.687zm20.076 13.624q0 .987-.25 1.768-.251.795-.663 1.384-.413.604-.958 1.017-.545.427-1.149.692-.589.265-1.193.383-.604.132-1.149.132h-6.907v-3.83h6.907q.766 0 1.15-.397.382-.398.382-1.149V103.78h3.83zm-5.362-1.532h-6.907q-.825 0-1.768-.28-.928-.28-1.738-.913-.81-.648-1.34-1.664-.53-1.031-.53-2.519V103.78h3.829v10.546q0 .751.398 1.15.397.397 1.178.397h6.878zm32.552-8.837H413.43v-3.447h13.816zm34.466 8.837h-3.83v-5.184H444.42v5.184h-3.83v-10.56q0-2.313.796-4.257.795-1.944 2.209-3.344 1.414-1.399 3.343-2.18 1.93-.78 4.213-.78h8.631q.398 0 .751.147.354.148.619.413t.412.618q.148.354.148.751zm-17.292-9.014h13.462v-8.278h-6.731q-.177 0-.751.06-.56.044-1.311.25-.737.206-1.561.633-.825.427-1.518 1.178-.692.752-1.148 1.886-.442 1.12-.442 2.725zm40.019 9.014h-5.524l-7.718-7.452q-.648-.59-.604-1.473.03-.413.206-.766.192-.369.516-.619l6.996-5.641h6.128l-9.015 7.261zm-14.818 0h-3.83V97.048h3.83zm31.874 0H491.11q-.796 0-1.738-.28-.943-.28-1.753-.913-.795-.648-1.34-1.664-.53-1.031-.53-2.519v-5.184q0-.545.117-1.15.133-.603.398-1.192.265-.604.677-1.15.428-.544 1.017-.956.604-.413 1.384-.663.781-.25 1.768-.25h10.384v3.829H491.11q-.751 0-1.15.383-.382.383-.382 1.178v5.155q0 .751.398 1.15.397.397 1.163.397h10.355zm20.179-10.649q0 .796-.28 1.724-.28.913-.913 1.708-.62.78-1.635 1.311-1.002.53-2.445.53h-6.908v-3.638h6.908q.78 0 1.207-.471.428-.486.428-1.193 0-.751-.487-1.178-.47-.428-1.148-.428h-6.908q-.781 0-1.208.486-.427.472-.427 1.179v5.346q0 .766.471 1.193.486.428 1.193.428h6.879v3.652h-6.908q-.796 0-1.724-.28-.913-.28-1.708-.898-.78-.633-1.311-1.635-.53-1.016-.53-2.46v-5.376q0-.795.28-1.708.28-.928.898-1.709.633-.795 1.635-1.325 1.016-.53 2.46-.53h6.908q.795 0 1.708.28.928.279 1.709.912.795.619 1.325 1.635.53 1.002.53 2.445zm17.969 5.273q0 .987-.25 1.783-.25.78-.663 1.384-.413.59-.958 1.016-.545.413-1.148.678-.59.265-1.208.398-.604.117-1.15.117h-10.368v-3.83h10.34q.78 0 1.178-.397.397-.398.397-1.149-.073-1.532-1.546-1.532h-5.936q-1.267 0-2.15-.441-.884-.442-1.444-1.105-.545-.663-.795-1.429-.236-.766-.236-1.429 0-1.28.457-2.15.456-.884 1.149-1.429.692-.545 1.502-.78.81-.25 1.517-.25h9.412v3.829h-9.382q-.295 0-.472.073-.162.06-.25.177-.074.103-.089.236-.014.118-.014.236.014.235.088.368.074.132.177.191.118.06.25.074h6.216q1.473 0 2.504.53 1.03.53 1.664 1.34.634.796.913 1.738.295.943.295 1.753zm20.002 0q0 .987-.25 1.783-.25.78-.663 1.384-.412.59-.957 1.016-.545.413-1.15.678-.588.265-1.207.398-.604.117-1.149.117h-6.908q-.795 0-1.738-.28t-1.753-.913q-.795-.648-1.34-1.664-.53-1.031-.53-2.519v-5.184q0-1.473.53-2.49.545-1.03 1.34-1.664.81-.648 1.753-.928.943-.28 1.738-.28h6.908q1.473 0 2.504.53t1.664 1.34q.634.796.914 1.739.294.943.294 1.753zm-3.83-5.155q0-.795-.397-1.178-.398-.383-1.149-.383h-6.878q-.766 0-1.164.398-.398.382-.398 1.134v5.184q0 .751.398 1.15.398.397 1.164.397h6.878q.78 0 1.164-.398.383-.398.383-1.149zm21.019-1.561h-8.617q-.78 0-1.178.398-.398.382-.398 1.134v10.56h-3.83v-10.56q0-.987.251-1.768.25-.78.663-1.37.427-.604.972-1.016.545-.427 1.134-.692.604-.265 1.208-.383.619-.133 1.149-.133h8.646zm6.407-7.099h-3.83v-3.462h3.83zm0 19.191h-3.83V103.78h3.83zm20.105-5.273q0 .796-.28 1.724-.28.913-.913 1.708-.618.78-1.635 1.311-1.001.53-2.445.53h-6.908q-.795 0-1.723-.28-.913-.28-1.709-.898-.78-.633-1.31-1.635-.53-1.016-.53-2.46 0-.795.28-1.723.279-.928.898-1.708.633-.796 1.635-1.326 1.016-.53 2.46-.53h6.907v3.652h-6.908q-.78 0-1.207.487-.428.47-.428 1.178 0 .751.486 1.178.501.413 1.179.413h6.878q.78 0 1.208-.472.427-.471.427-1.178v-5.347q0-.75-.471-1.193-.457-.442-1.164-.442h-8.41v-3.638h8.41q.796 0 1.709.28.928.28 1.708.913.796.619 1.326 1.635.53 1.002.53 2.445zm26.807-3.564h-13.816v-3.447h13.816zm34.039 2.622q0 1.134-.295 2.047-.28.899-.75 1.59-.472.693-1.106 1.18-.633.485-1.31.795-.678.309-1.385.456-.692.147-1.31.147h-14.774v-3.83h14.773q1.105 0 1.709-.647.618-.648.618-1.738 0-.53-.162-.972-.162-.442-.471-.766-.295-.324-.736-.501-.428-.177-.958-.177h-8.808q-.928 0-2.003-.324-1.075-.339-2.003-1.075-.913-.737-1.532-1.93-.604-1.193-.604-2.916 0-1.723.604-2.902.619-1.193 1.532-1.93.928-.75 2.003-1.074 1.075-.34 2.003-.34h13.035v3.83h-13.035q-1.09 0-1.708.663-.604.663-.604 1.753 0 1.105.604 1.753.618.633 1.708.633h8.838q.618.015 1.31.177.693.147 1.37.471.693.324 1.311.825.619.486 1.09 1.178.486.693.766 1.591.28.899.28 2.033zm19.884-4.434q0 .796-.28 1.724-.28.913-.913 1.708-.619.78-1.635 1.311-1.001.53-2.445.53h-6.908v-3.638h6.908q.78 0 1.208-.471.427-.486.427-1.193 0-.751-.486-1.178-.471-.428-1.149-.428h-6.908q-.78 0-1.208.486-.427.472-.427 1.179v5.346q0 .766.472 1.193.486.428 1.193.428h6.878v3.652h-6.908q-.795 0-1.723-.28-.913-.28-1.709-.898-.78-.633-1.31-1.635-.53-1.016-.53-2.46v-5.376q0-.795.28-1.708.279-.928.898-1.709.633-.795 1.634-1.325 1.017-.53 2.46-.53h6.908q.796 0 1.709.28.928.279 1.708.912.796.619 1.326 1.635.53 1.002.53 2.445zm16.511-1.443h-8.616q-.78 0-1.178.398-.398.382-.398 1.134v10.56h-3.83v-10.56q0-.987.25-1.768.251-.78.664-1.37.427-.604.972-1.016.545-.427 1.134-.692.604-.265 1.208-.383.618-.133 1.148-.133h8.646zm28.737-3.829q-.913 2.047-1.974 4.035-1.06 1.974-2.224 3.741-1.149 1.768-2.357 3.27-1.207 1.488-2.4 2.578-1.179 1.075-2.313 1.694-1.12.603-2.121.603-.412 0-.766-.147-.353-.147-.618-.398-.266-.265-.413-.618-.147-.354-.147-.766v-7.144l-7.6 8.499q-.295.295-.648.442-.34.132-.707.132-.398 0-.752-.147-.338-.147-.604-.398-.265-.265-.427-.618-.147-.354-.147-.766v-13.993h3.83v9.073l7.63-8.528q.412-.412.971-.515.575-.118 1.12.118.545.22.854.707.324.47.324 1.045v9.103q1.237-1.193 2.239-2.519 1.001-1.325 1.856-2.725.869-1.414 1.62-2.857.766-1.458 1.488-2.902zm5.214-3.27h-3.83v-3.462h3.83zm0 19.191h-3.83V103.78h3.83zm19.059-5.376q0 .987-.25 1.783-.25.78-.663 1.384-.412.59-.957 1.016-.545.413-1.15.678-.588.265-1.207.398-.604.117-1.149.117h-10.37v-3.83h10.34q.781 0 1.179-.397.398-.398.398-1.149-.074-1.532-1.547-1.532h-5.936q-1.266 0-2.15-.441-.884-.442-1.444-1.105-.545-.663-.795-1.429-.236-.766-.236-1.429 0-1.28.457-2.15.457-.884 1.149-1.429t1.502-.78q.81-.25 1.517-.25h9.412v3.829h-9.382q-.295 0-.472.073-.162.06-.25.177-.074.103-.088.236-.015.118-.015.236.015.235.088.368.074.132.177.191.118.06.25.074h6.216q1.473 0 2.504.53t1.665 1.34q.633.796.913 1.738.294.943.294 1.753z"/></svg>