<svg viewBox="0 0 742.62 80.088" xmlns="http://www.w3.org/2000/svg"><path d="M240.93 0v9.549h10.564V0zm334.58 0v9.549h10.562V0zm147.56 0v47.658c0 2.736.488 5.052 1.463 6.947.975 1.869 2.206 3.4 3.695 4.592 1.49 1.165 3.088 2.005 4.793 2.52 1.734.515 3.36.771 4.877.771h4.713l.002-10.562H737.9c-1.22 0-2.235-.38-3.047-1.139-.813-.785-1.22-1.829-1.22-3.129V0zM125.62.002v47.656c0 1.815.23 3.454.691 4.916.46 1.436 1.07 2.71 1.829 3.82a13.97 13.97 0 0 0 2.681 2.803 16.26 16.26 0 0 0 3.129 1.87c1.11.486 2.22.85 3.33 1.095 1.111.216 2.169.326 3.17.326h19.055c1.815 0 3.44-.23 4.875-.691 1.435-.461 2.696-1.07 3.78-1.829a12.64 12.64 0 0 0 2.802-2.681 15.2 15.2 0 0 0 1.91-3.127c.487-1.111.84-2.222 1.057-3.332.243-1.111.365-2.169.365-3.17V33.357c0-1.815-.23-3.44-.691-4.875-.46-1.436-1.07-2.695-1.828-3.78a11.884 11.884 0 0 0-2.641-2.802 14.765 14.765 0 0 0-3.17-1.91 14.987 14.987 0 0 0-3.29-1.057 14.826 14.826 0 0 0-3.169-.365H140.45v10.564h19.055c1.246 0 2.262.38 3.047 1.139.785.73 1.178 1.76 1.178 3.087V47.66c0 1.272-.38 2.301-1.137 3.086-.73.787-1.76 1.18-3.088 1.18H140.45c-1.219 0-2.234-.38-3.047-1.139-.813-.785-1.22-1.827-1.22-3.127V.001zm57.449 0v47.656c0 1.815.23 3.454.69 4.916.46 1.436 1.07 2.71 1.83 3.82a13.924 13.924 0 0 0 2.68 2.803 16.278 16.278 0 0 0 3.128 1.87c1.11.486 2.222.85 3.332 1.095 1.111.216 2.169.326 3.17.326h19.055c1.815 0 3.439-.23 4.873-.691 1.437-.461 2.698-1.07 3.781-1.829a12.64 12.64 0 0 0 2.803-2.681 15.2 15.2 0 0 0 1.91-3.127c.487-1.111.84-2.222 1.057-3.332.243-1.111.365-2.169.365-3.17V33.357c0-1.815-.23-3.44-.691-4.875-.46-1.436-1.07-2.695-1.829-3.78a11.911 11.911 0 0 0-2.64-2.802 14.767 14.767 0 0 0-3.17-1.91 14.987 14.987 0 0 0-3.29-1.057 14.834 14.834 0 0 0-3.169-.365h-19.055v10.564h19.055c1.246 0 2.262.38 3.047 1.139.785.73 1.178 1.76 1.178 3.087V47.66c0 1.272-.38 2.301-1.137 3.086-.731.787-1.76 1.18-3.088 1.18h-19.055c-1.219 0-2.236-.38-3.049-1.139-.812-.785-1.219-1.827-1.219-3.127V.001zM-.011 4.225v58.264h10.562v-23.81h37.096v23.81h10.562V4.227H47.647v23.809H10.551V4.225zm321.54.002v14.342h-13.732v10.564h13.73v33.355h10.686V29.133h18.445l.002-10.564h-18.445V4.227zM82.999 18.569c-1.463 0-3.062.258-4.795.773s-3.344 1.367-4.834 2.559c-1.463 1.165-2.696 2.694-3.697 4.59-.976 1.869-1.465 4.16-1.465 6.869v14.299c0 2.736.488 5.051 1.463 6.947 1.003 1.869 2.235 3.4 3.697 4.592 1.49 1.164 3.103 2.004 4.836 2.52 1.733.512 3.331.769 4.793.769h19.053c1.003 0 2.059-.107 3.168-.323a16.612 16.612 0 0 0 3.332-1.097 15.738 15.738 0 0 0 3.17-1.87 13.087 13.087 0 0 0 2.643-2.802c.758-1.11 1.367-2.384 1.828-3.82.46-1.462.69-3.102.69-4.916l.001-14.301c0-1.49-.27-3.101-.81-4.834a14.07 14.07 0 0 0-2.522-4.795c-1.165-1.49-2.694-2.722-4.59-3.698-1.896-.974-4.197-1.462-6.906-1.462zm157.92 0v43.92h10.564v-43.92zm31.936 0c-1.3 0-2.696.231-4.186.691a12.135 12.135 0 0 0-4.144 2.154c-1.273 1.002-2.328 2.314-3.168 3.94-.84 1.598-1.26 3.575-1.26 5.931 0 1.22.217 2.535.65 3.944.461 1.408 1.192 2.72 2.194 3.94 1.03 1.218 2.355 2.234 3.98 3.046 1.626.812 3.605 1.219 5.934 1.219h16.373c2.709 0 4.13 1.409 4.266 4.227 0 1.38-.367 2.436-1.098 3.166-.731.732-1.815 1.1-3.25 1.1h-28.521v10.561h28.604c1.002 0 2.058-.109 3.168-.324a16.612 16.612 0 0 0 3.332-1.098 15.691 15.691 0 0 0 3.168-1.869 13.026 13.026 0 0 0 2.64-2.803c.76-1.11 1.369-2.384 1.829-3.82.46-1.462.691-3.1.691-4.914 0-1.49-.271-3.103-.813-4.836a14.044 14.044 0 0 0-2.519-4.793c-1.165-1.49-2.695-2.724-4.59-3.699-1.896-.975-4.197-1.46-6.906-1.46h-17.146a2.082 2.082 0 0 1-.691-.206c-.19-.108-.351-.283-.487-.527-.134-.244-.215-.583-.242-1.016 0-.216.012-.433.04-.65.026-.244.107-.46.243-.65.162-.217.392-.379.69-.487.324-.136.759-.203 1.3-.203h25.882V18.569zm157.15 0c-1.815 0-3.44.231-4.875.691-1.437.461-2.708 1.07-3.818 1.828a13.038 13.038 0 0 0-2.805 2.64 15.69 15.69 0 0 0-1.87 3.17 16.786 16.786 0 0 0-1.097 3.292 16.623 16.623 0 0 0-.324 3.17v14.3c0 2.736.488 5.052 1.463 6.948 1.002 1.869 2.234 3.398 3.697 4.59 1.49 1.165 3.1 2.005 4.834 2.52 1.733.514 3.332.77 4.795.77h28.645V51.928h-28.562c-1.409 0-2.48-.367-3.21-1.098-.732-.731-1.097-1.788-1.097-3.17V33.44c0-1.463.351-2.546 1.055-3.25.732-.705 1.789-1.057 3.17-1.057h28.645V18.57zm35.955 0V29.13h25.393l-24.295 24.297a5.347 5.347 0 0 0-1.502 2.761 5.361 5.361 0 0 0 .324 3.05 5.859 5.859 0 0 0 1.95 2.355 5.24 5.24 0 0 0 2.966.892h38.11V51.924h-25.394l24.418-24.377a5.135 5.135 0 0 0 1.383-2.681c.216-1.03.107-2.046-.326-3.047-.407-1.03-1.058-1.828-1.951-2.397a5.15 5.15 0 0 0-2.885-.853zm109.54 0v43.92h10.562v-43.92zm34.33 0c-2.654 0-4.916.488-6.785 1.463-1.842.975-3.346 2.193-4.51 3.656a14.08 14.08 0 0 0-2.479 4.713c-.514 1.679-.771 3.25-.771 4.713v14.83c0 2.654.486 4.916 1.46 6.785.976 1.841 2.182 3.343 3.618 4.508 1.462 1.138 3.033 1.965 4.713 2.48 1.706.515 3.291.771 4.754.771h19.055V52.412H609.91c-1.3 0-2.396-.391-3.29-1.177-.867-.786-1.302-1.883-1.302-3.291V33.196c0-1.302.394-2.386 1.18-3.252.786-.894 1.897-1.34 3.332-1.34h19.055c1.247 0 2.303.392 3.17 1.178.894.785 1.342 1.868 1.342 3.25 0 1.3-.394 2.397-1.18 3.29-.786.867-1.896 1.301-3.332 1.301H609.83v10.035h19.055c2.655 0 4.903-.487 6.744-1.462 1.87-.976 3.371-2.18 4.508-3.616 1.165-1.462 2.007-3.033 2.521-4.713.515-1.706.772-3.291.772-4.753 0-2.655-.489-4.902-1.463-6.743-.976-1.87-2.193-3.373-3.655-4.51a13.71 13.71 0 0 0-4.714-2.519c-1.68-.515-3.25-.773-4.713-.773zm70.611 0c-.975 0-2.031.122-3.17.365-1.11.217-2.22.57-3.33 1.056a15.12 15.12 0 0 0-3.129 1.91 12.64 12.64 0 0 0-2.682 2.803c-.758 1.084-1.367 2.342-1.828 3.778-.46 1.436-.69 3.061-.69 4.877v42.865h10.563V33.358c0-1.382.366-2.423 1.098-3.127.731-.732 1.814-1.098 3.25-1.098h18.975c1.38 0 2.423.352 3.127 1.057.732.703 1.097 1.786 1.097 3.25v14.219c0 1.38-.352 2.437-1.056 3.168-.704.732-1.76 1.1-3.168 1.1h-19.055v10.561h19.055c1.002 0 2.058-.108 3.168-.324a16.88 16.88 0 0 0 3.29-1.098 15.674 15.674 0 0 0 3.17-1.869 13.027 13.027 0 0 0 2.641-2.803c.758-1.11 1.368-2.383 1.828-3.82.461-1.462.692-3.101.692-4.916v-14.3c0-1.003-.123-2.06-.367-3.17a15.042 15.042 0 0 0-1.055-3.29 14.709 14.709 0 0 0-1.91-3.17 11.94 11.94 0 0 0-2.803-2.64c-1.085-.758-2.344-1.368-3.78-1.828-1.435-.46-3.06-.692-4.874-.692zm-323.08.002v29.09c0 2.735.487 5.05 1.46 6.947.977 1.869 2.21 3.398 3.7 4.59 1.49 1.165 3.088 2.005 4.793 2.52 1.733.514 3.36.77 4.877.77h19.055V51.928h-18.975c-1.435 0-2.518-.367-3.25-1.098-.731-.73-1.098-1.787-1.098-3.168v-29.09zm38.109 0v48.143c0 1.382-.35 2.438-1.055 3.17-.704.73-1.76 1.097-3.17 1.097H372.19v9.108h25.568a14.677 14.677 0 0 0 3.116-1.875 11.908 11.908 0 0 0 2.64-2.805c.758-1.083 1.368-2.356 1.828-3.818.46-1.436.692-3.06.692-4.875V18.57zm127.25 0c-.73 0-1.422.134-2.072.404-.651.271-1.219.65-1.705 1.139a4.807 4.807 0 0 0-1.14 1.666c-.27.623-.405 1.299-.405 2.029v38.68h10.562V29.133h18.486c1.274 0 2.451.217 3.535.65a8.105 8.105 0 0 1 2.885 1.787c.812.786 1.448 1.735 1.908 2.844.489 1.084.732 2.316.732 3.697v24.377h10.564V38.111c0-2.384-.299-4.523-.894-6.42-.596-1.895-1.408-3.56-2.438-4.996-1.002-1.462-2.167-2.695-3.494-3.697-1.3-1.03-2.68-1.87-4.142-2.52a19.008 19.008 0 0 0-4.391-1.462 20.988 20.988 0 0 0-4.182-.446zM83.08 29.133h18.973c1.381 0 2.437.352 3.168 1.056.732.704 1.1 1.787 1.1 3.25l.002 14.22c0 1.38-.354 2.437-1.059 3.167-.704.732-1.773 1.1-3.209 1.1H83.082c-1.408 0-2.479-.367-3.21-1.098-.733-.732-1.099-1.79-1.099-3.17v-14.3c0-1.382.366-2.424 1.098-3.128.731-.732 1.801-1.097 3.21-1.097zm569.29 22.793a4.92 4.92 0 0 0-2.074.445 5.35 5.35 0 0 0-1.664 1.139 5.105 5.105 0 0 0-1.098 1.666 4.936 4.936 0 0 0-.406 1.99c0 .731.135 1.421.406 2.072.27.623.636 1.178 1.096 1.664.488.46 1.044.827 1.668 1.098.65.27 1.34.406 2.072.406.704 0 1.368-.135 1.99-.406a5.112 5.112 0 0 0 1.666-1.098 5.335 5.335 0 0 0 1.137-1.664 4.91 4.91 0 0 0 .447-2.072v-.002c0-.704-.149-1.365-.447-1.988a4.8 4.8 0 0 0-1.137-1.666 4.81 4.81 0 0 0-1.666-1.14 4.55 4.55 0 0 0-1.99-.444z"/></svg>