<svg viewBox="0 0 1598 646" xmlns="http://www.w3.org/2000/svg"><path d="M0 0h1598v646H0V0m642.56 162.84c-.15 54.71-.02 109.43-.06 164.15-.23 22.03 1.05 44.22-2.63 66.05-2.98 18.75-9.19 37.51-21.22 52.48-10.03 12.65-24.11 21.74-39.38 26.74-14.87 5.07-30.68 6.32-46.28 6.2-26.87-1.57-52.24-15.49-69.36-36.02-11.69-14.13-17.97-32.18-19.33-50.35-1.5-17.78.95-36.33 9.68-52.11 8.27-15.14 21.71-27 36.75-35.18 20.15-10.88 43.65-14.1 66.27-12.42 20.13 1.45 40.31 7.57 56.62 19.71 4.84-7.42 9.75-14.78 14.63-22.17-23.71-22.1-57.53-29.73-89.17-28.06-36.19 1.38-71.3 19.01-94.2 47.03-14.25 17.49-22.13 39.63-23.71 62.03-1.88 22.86 1.67 46.65 13.15 66.76 14.47 25.5 39.05 44.23 66.01 55.01 18.93 7.5 39.34 10.72 59.63 10.92 22.21-.27 44.38-5.06 64.66-14.12 24.55-11.24 46.46-29.67 59.04-53.83 9.94-18.89 13.83-40.49 13.47-61.7.08-77.2-.21-154.4-.13-231.6-18.16 6.8-36.26 13.75-54.44 20.48m-270.15 33.89c-10.07 2.62-17.33 13-16.21 23.38.63 8.71 6.93 16.63 15.25 19.26 6.6 2.18 14.19 1.04 19.83-3.03 6.14-4.29 9.79-11.85 9.33-19.33-.32-7.02-4.22-13.75-10.14-17.52-5.26-3.45-12.01-4.44-18.06-2.76M361.33 274c.11 73.91 0 147.83.06 221.75 10.99-4.18 22.01-8.29 32.99-12.49-.01-73.94.01-147.88-.01-221.82-11.01 4.19-22.08 8.23-33.04 12.56m436.25-3.44c-16.49 6.45-31.5 16.46-44.21 28.75-13.43 13.03-23.31 29.65-28.33 47.67-4.69 16.89-5.63 34.73-3.55 52.11 2.25 17.84 9.01 35.12 19.77 49.55 11.54 15.55 26.97 27.98 43.94 37.16 31.38 16.85 68.38 20.62 103.31 15.98 29.06-3.89 57.57-16.88 77.13-39.12 7.98-9.08 16.54-17.85 22.5-28.46 8.05-13.71 14.66-28.18 21.48-42.51 10.54-21.87 21.38-43.77 35.36-63.69 7.82-11.43 18.52-20.64 30.36-27.7 25.4-15.16 58.08-17.63 85.32-6.01 12.01 5.13 22.91 12.71 32.23 21.83 12.94 12.79 21.35 29.83 24.25 47.75 3.19 19.79 1.93 40.95-7.18 59.1-7.28 14.86-19.72 26.64-33.72 35.18-16.27 9.93-35.34 14.59-54.28 15.22-24.44.92-49.89-4.01-70.23-18.18-13.27-9.01-24.09-21.18-33.22-34.27-3.8 8.1-7.61 16.19-11.4 24.29 12.06 15.63 25.32 30.89 42.11 41.6 20.84 12.61 45.66 17.23 69.79 16.76 17.35-.35 34.72-3.82 50.63-10.85 15.87-7.02 30.34-17.22 42.35-29.74 13.47-14.1 22.87-31.98 26.9-51.06 3.93-18.68 4.13-38.26-.11-56.91-3.88-16.78-11.82-32.71-23.41-45.51-23.24-26.21-56.64-42.57-91.32-46.47-30.48-3.4-62.5-.9-90.53 12.31-16.96 7.98-31.46 20.38-43.91 34.25-7.12 8.03-13.85 16.46-19.47 25.61-5.89 10.62-10.87 21.73-16.29 32.6-8.7 17.59-17.4 35.18-26.59 52.51-5.69 10.01-11.56 20.07-19.37 28.59-13.4 13.26-30.38 23.17-48.91 27.11-19.45 4.16-40.3 2.59-58.54-5.52-13.38-5.94-25.28-14.98-35.09-25.79-12.76-14.26-19.58-33.04-21.21-51.95 35.43-.02 70.86.03 106.29-.02 3.88-6.35 7.84-12.64 11.74-18.97-39.4-.02-78.8-.02-118.2 0 .99-12.55 4.46-24.99 10.88-35.87 7.82-13.44 19.86-24.01 33.21-31.74 17.19-9.91 37.18-14.19 56.91-14.17 19.96-.15 40.36 3.54 57.93 13.38 15.23 8.47 27.7 21.11 38.11 34.95 4.06-7.73 7.8-15.61 11.83-23.35-10.99-13.82-22.91-27.3-37.74-37.12-17.91-11.43-39.1-16.99-60.21-17.97-19.42-1.06-39.16 1.55-57.31 8.69Z" fill="#0f76a4"/><path d="M642.56 162.84c18.18-6.73 36.28-13.68 54.44-20.48-.08 77.2.21 154.4.13 231.6.36 21.21-3.53 42.81-13.47 61.7-12.58 24.16-34.49 42.59-59.04 53.83-20.28 9.06-42.45 13.85-64.66 14.12-20.29-.2-40.7-3.42-59.63-10.92-26.96-10.78-51.54-29.51-66.01-55.01-11.48-20.11-15.03-43.9-13.15-66.76 1.58-22.4 9.46-44.54 23.71-62.03 22.9-28.02 58.01-45.65 94.2-47.03 31.64-1.67 65.46 5.96 89.17 28.06-4.88 7.39-9.79 14.75-14.63 22.17-16.31-12.14-36.49-18.26-56.62-19.71-22.62-1.68-46.12 1.54-66.27 12.42-15.04 8.18-28.48 20.04-36.75 35.18-8.73 15.78-11.18 34.33-9.68 52.11 1.36 18.17 7.64 36.22 19.33 50.35 17.12 20.53 42.49 34.45 69.36 36.02 15.6.12 31.41-1.13 46.28-6.2 15.27-5 29.35-14.09 39.38-26.74 12.03-14.97 18.24-33.73 21.22-52.48 3.68-21.83 2.4-44.02 2.63-66.05.04-54.72-.09-109.44.06-164.15ZM372.41 196.73c6.05-1.68 12.8-.69 18.06 2.76 5.92 3.77 9.82 10.5 10.14 17.52.46 7.48-3.19 15.04-9.33 19.33-5.64 4.07-13.23 5.21-19.83 3.03-8.32-2.63-14.62-10.55-15.25-19.26-1.12-10.38 6.14-20.76 16.21-23.38ZM361.33 274c10.96-4.33 22.03-8.37 33.04-12.56.02 73.94 0 147.88.01 221.82-10.98 4.2-22 8.31-32.99 12.49-.06-73.92.05-147.84-.06-221.75ZM797.58 270.56c18.15-7.14 37.89-9.75 57.31-8.69 21.11.98 42.3 6.54 60.21 17.97 14.83 9.82 26.75 23.3 37.74 37.12-4.03 7.74-7.77 15.62-11.83 23.35-10.41-13.84-22.88-26.48-38.11-34.95-17.57-9.84-37.97-13.53-57.93-13.38-19.73-.02-39.72 4.26-56.91 14.17-13.35 7.73-25.39 18.3-33.21 31.74-6.42 10.88-9.89 23.32-10.88 35.87 39.4-.02 78.8-.02 118.2 0-3.9 6.33-7.86 12.62-11.74 18.97-35.43.05-70.86 0-106.29.02 1.63 18.91 8.45 37.69 21.21 51.95 9.81 10.81 21.71 19.85 35.09 25.79 18.24 8.11 39.09 9.68 58.54 5.52 18.53-3.94 35.51-13.85 48.91-27.11 7.81-8.52 13.68-18.58 19.37-28.59 9.19-17.33 17.89-34.92 26.59-52.51 5.42-10.87 10.4-21.98 16.29-32.6 5.62-9.15 12.35-17.58 19.47-25.61 12.45-13.87 26.95-26.27 43.91-34.25 28.03-13.21 60.05-15.71 90.53-12.31 34.68 3.9 68.08 20.26 91.32 46.47 11.59 12.8 19.53 28.73 23.41 45.51 4.24 18.65 4.04 38.23.11 56.91-4.03 19.08-13.43 36.96-26.9 51.06-12.01 12.52-26.48 22.72-42.35 29.74-15.91 7.03-33.28 10.5-50.63 10.85-24.13.47-48.95-4.15-69.79-16.76-16.79-10.71-30.05-25.97-42.11-41.6 3.79-8.1 7.6-16.19 11.4-24.29 9.13 13.09 19.95 25.26 33.22 34.27 20.34 14.17 45.79 19.1 70.23 18.18 18.94-.63 38.01-5.29 54.28-15.22 14-8.54 26.44-20.32 33.72-35.18 9.11-18.15 10.37-39.31 7.18-59.1-2.9-17.92-11.31-34.96-24.25-47.75-9.32-9.12-20.22-16.7-32.23-21.83-27.24-11.62-59.92-9.15-85.32 6.01-11.84 7.06-22.54 16.27-30.36 27.7-13.98 19.92-24.82 41.82-35.36 63.69-6.82 14.33-13.43 28.8-21.48 42.51-5.96 10.61-14.52 19.38-22.5 28.46-19.56 22.24-48.07 35.23-77.13 39.12-34.93 4.64-71.93.87-103.31-15.98-16.97-9.18-32.4-21.61-43.94-37.16-10.76-14.43-17.52-31.71-19.77-49.55-2.08-17.38-1.14-35.22 3.55-52.11 5.02-18.02 14.9-34.64 28.33-47.67 12.71-12.29 27.72-22.3 44.21-28.75Z" fill="#fff"/></svg>